<mxfile host="app.diagrams.net" agent="Mozilla/5.0 (Windows NT 10.0; Win64; x64) AppleWebKit/537.36 (KHTML, like Gecko) Chrome/135.0.0.0 Safari/537.36 Edg/135.0.0.0" version="26.1.1">
  <diagram name="第 1 页" id="bO8vGcTH6BEmggN3PEdY">
    <mxGraphModel dx="474" dy="273" grid="1" gridSize="10" guides="1" tooltips="1" connect="1" arrows="1" fold="1" page="1" pageScale="1" pageWidth="827" pageHeight="1169" math="0" shadow="0">
      <root>
        <mxCell id="0" />
        <mxCell id="1" parent="0" />
        <mxCell id="dGdK2GwiKbszH_vSBpFH-3" value="展示层-React.js" style="rounded=0;whiteSpace=wrap;html=1;" vertex="1" parent="1">
          <mxGeometry x="120" y="100" width="520" height="40" as="geometry" />
        </mxCell>
        <mxCell id="dGdK2GwiKbszH_vSBpFH-4" value="" style="rounded=1;whiteSpace=wrap;html=1;" vertex="1" parent="1">
          <mxGeometry x="120" y="190" width="520" height="269" as="geometry" />
        </mxCell>
        <mxCell id="dGdK2GwiKbszH_vSBpFH-6" value="实时监控模块" style="rounded=0;whiteSpace=wrap;html=1;" vertex="1" parent="1">
          <mxGeometry x="190" y="240" width="140" height="90" as="geometry" />
        </mxCell>
        <mxCell id="dGdK2GwiKbszH_vSBpFH-7" value="设备管理模块" style="rounded=0;whiteSpace=wrap;html=1;" vertex="1" parent="1">
          <mxGeometry x="420" y="240" width="140" height="90" as="geometry" />
        </mxCell>
        <mxCell id="dGdK2GwiKbszH_vSBpFH-8" value="历史数据模块" style="rounded=0;whiteSpace=wrap;html=1;" vertex="1" parent="1">
          <mxGeometry x="190" y="350" width="140" height="90" as="geometry" />
        </mxCell>
        <mxCell id="dGdK2GwiKbszH_vSBpFH-9" value="能效分析模块" style="rounded=0;whiteSpace=wrap;html=1;" vertex="1" parent="1">
          <mxGeometry x="420" y="350" width="140" height="90" as="geometry" />
        </mxCell>
        <mxCell id="dGdK2GwiKbszH_vSBpFH-10" value="后端服务" style="text;html=1;align=center;verticalAlign=middle;whiteSpace=wrap;rounded=0;" vertex="1" parent="1">
          <mxGeometry x="325" y="200" width="110" height="30" as="geometry" />
        </mxCell>
        <mxCell id="dGdK2GwiKbszH_vSBpFH-11" value="" style="rounded=0;whiteSpace=wrap;html=1;" vertex="1" parent="1">
          <mxGeometry x="120" y="520" width="120" height="60" as="geometry" />
        </mxCell>
        <mxCell id="dGdK2GwiKbszH_vSBpFH-12" value="" style="endArrow=classic;html=1;rounded=0;" edge="1" parent="1">
          <mxGeometry width="50" height="50" relative="1" as="geometry">
            <mxPoint x="340" y="188" as="sourcePoint" />
            <mxPoint x="340" y="140" as="targetPoint" />
          </mxGeometry>
        </mxCell>
        <mxCell id="dGdK2GwiKbszH_vSBpFH-15" value="Restful请求" style="edgeLabel;html=1;align=center;verticalAlign=middle;resizable=0;points=[];" vertex="1" connectable="0" parent="dGdK2GwiKbszH_vSBpFH-12">
          <mxGeometry x="0.006" relative="1" as="geometry">
            <mxPoint as="offset" />
          </mxGeometry>
        </mxCell>
        <mxCell id="dGdK2GwiKbszH_vSBpFH-13" value="" style="endArrow=classic;html=1;rounded=0;exitX=0.423;exitY=-0.009;exitDx=0;exitDy=0;exitPerimeter=0;" edge="1" parent="1">
          <mxGeometry width="50" height="50" relative="1" as="geometry">
            <mxPoint x="420" y="188" as="sourcePoint" />
            <mxPoint x="420" y="140" as="targetPoint" />
          </mxGeometry>
        </mxCell>
        <mxCell id="dGdK2GwiKbszH_vSBpFH-17" value="Websocket连接" style="edgeLabel;html=1;align=center;verticalAlign=middle;resizable=0;points=[];" vertex="1" connectable="0" parent="dGdK2GwiKbszH_vSBpFH-13">
          <mxGeometry x="0.0258" y="-1" relative="1" as="geometry">
            <mxPoint as="offset" />
          </mxGeometry>
        </mxCell>
      </root>
    </mxGraphModel>
  </diagram>
</mxfile>
